<svg width="146" height="84" viewBox="0 0 146 84" fill="none" xmlns="http://www.w3.org/2000/svg">
<path fill-rule="evenodd" clip-rule="evenodd" d="M64.5471 15.7863C60.416 16.5232 57.4539 14.9736 55.6604 11.1378C55.1223 9.71785 54.9402 8.25961 55.1135 6.76281C57.28 5.75383 58.3737 6.48309 58.3948 8.95031C59.0417 11.2866 60.5456 12.5624 62.9065 12.7784C63.1132 7.83524 60.8347 4.69071 56.0706 3.34485C50.3749 2.83735 47.048 5.435 46.0901 11.1378C45.8243 11.6314 45.5052 12.0872 45.1331 12.505C43.863 13.0956 42.5412 13.5512 41.1682 13.8722C40.7603 15.2804 40.1677 16.6019 39.3909 17.837C40.2101 19.4361 41.486 20.5298 43.219 21.1183C44.6772 21.3007 46.1358 21.3007 47.594 21.1183C48.8455 20.5061 50.0306 19.7771 51.1487 18.9308C51.7505 18.7052 52.2517 18.8419 52.6526 19.3409C52.6851 22.9979 52.8672 26.6436 53.1995 30.2784C54.0012 33.1236 55.5051 35.4934 57.7112 37.3878C57.7276 37.5363 57.8187 37.6273 57.9846 37.6612C58.2567 36.1223 58.348 34.573 58.2581 33.0128C58.5348 32.3631 59.036 32.0897 59.762 32.1925C60.3181 32.1526 60.774 32.3347 61.1292 32.7394C61.1756 35.2484 61.3124 37.7094 61.5393 40.1222C66.272 42.4297 71.2852 43.2044 76.5784 42.4464C82.5604 41.6228 87.2545 38.7517 90.6604 33.8331C92.2048 31.119 92.8884 28.2022 92.7112 25.0831C91.1064 25.2018 89.7849 24.6549 88.7464 23.4425C88.4948 22.6747 88.7226 22.0821 89.4299 21.6652C90.7534 21.5487 92.0749 21.5941 93.3948 21.8019C95.2651 21.8238 96.6323 21.0034 97.4964 19.3409C98.2847 17.9467 98.9229 16.4882 99.4104 14.9659C100.048 14.0661 100.823 13.9293 101.735 14.5558C102.129 14.8637 102.312 15.2738 102.282 15.7863C101.681 19.9816 99.5389 23.0805 95.8557 25.0831C95.719 32.7388 95.6733 40.3951 95.719 48.0519C97.4531 48.0065 99.1848 48.0519 100.914 48.1886C102.368 49.2214 102.368 50.1784 100.914 51.0597C82.0958 51.0564 63.2286 51.0564 44.3128 51.0597C43.225 50.1363 43.225 49.1793 44.3128 48.1886C46.0422 48.0519 47.7739 48.0065 49.5081 48.0519C49.8717 39.9846 49.8717 31.8729 49.5081 23.7159C49.3421 23.7498 49.251 23.8409 49.2346 23.9894C42.0427 25.7476 37.2575 23.1043 34.8792 16.0597C34.5614 14.795 34.4701 13.5189 34.6057 12.2316C37.3051 11.2259 40.0851 10.4512 42.9456 9.90735C45.3343 1.32961 50.8031 -1.6782 59.3518 0.883909C64.2737 3.57207 66.5066 7.71903 66.051 13.3253C65.8205 14.337 65.3193 15.1573 64.5471 15.7863Z" fill="#060607"/>
<path fill-rule="evenodd" clip-rule="evenodd" d="M64.5469 15.7858C64.5772 15.9546 64.6683 16.0913 64.8203 16.196C63.0093 16.9559 61.4598 18.0953 60.1719 19.614C60.3086 19.705 60.4453 19.7963 60.582 19.8874C61.5593 18.8675 62.6987 18.0015 64 17.2897C65.4913 16.8656 66.9498 16.82 68.375 17.153C64.5507 16.9455 61.8617 18.5861 60.3086 22.0749C60.1262 23.5331 60.1262 24.9917 60.3086 26.4499C60.4918 27.1811 60.8109 27.819 61.2656 28.364C62.2571 29.7205 63.3509 30.9966 64.5469 32.1921C64.1047 32.045 63.6489 31.9539 63.1797 31.9187C63.1934 31.3472 62.9199 30.9827 62.3594 30.8249C62.2683 31.0073 62.177 31.1894 62.0859 31.3718C61.8259 31.1459 61.5525 31.1005 61.2656 31.2351C61.6301 31.5085 61.6301 31.7819 61.2656 32.0554C61.448 32.1464 61.6301 32.2378 61.8125 32.3288C61.5607 34.8286 61.4693 37.4262 61.5391 40.1218C61.3121 37.709 61.1754 35.248 61.1289 32.739C60.7737 32.3343 60.3179 32.1522 59.7617 32.1921C59.0357 32.0893 58.5345 32.3627 58.2578 33.0124C58.0754 34.4706 57.8933 35.9292 57.7109 37.3874C55.5048 35.493 54.0009 33.1231 53.1992 30.278C52.867 26.6432 52.6849 22.9975 52.6523 19.3405C52.2515 18.8415 51.7503 18.7048 51.1484 18.9304C50.0304 19.7767 48.8453 20.5056 47.5938 21.1179C46.1355 21.3003 44.677 21.3003 43.2188 21.1179C41.4857 20.5294 40.2098 19.4357 39.3906 17.8366C40.1675 16.6015 40.76 15.28 41.168 13.8718C42.5409 13.5508 43.8627 13.0952 45.1328 12.5046C45.505 12.0868 45.8241 11.631 46.0898 11.1374C47.0477 5.43459 50.3746 2.83694 56.0703 3.34444C60.8344 4.69029 63.113 7.83483 62.9062 12.778C60.5454 12.562 59.0415 11.2862 58.3945 8.9499C58.3735 6.48268 57.2797 5.75342 55.1133 6.7624C54.9399 8.2592 55.122 9.71744 55.6602 11.1374C57.4536 14.9732 60.4158 16.5228 64.5469 15.7858Z" fill="#F9F8F8"/>
<path fill-rule="evenodd" clip-rule="evenodd" d="M50.0552 7.58301C52.033 7.59531 52.5799 8.46102 51.6958 10.1807C49.7845 10.7289 49.0096 10.0453 49.3716 8.12988C49.6437 7.97512 49.8715 7.79273 50.0552 7.58301Z" fill="#10100F"/>
<path fill-rule="evenodd" clip-rule="evenodd" d="M68.3751 17.1532C69.2626 17.489 70.083 17.9445 70.836 18.5204C69.9293 18.2486 69.0179 17.9752 68.1016 17.7001C67.2882 17.8748 66.4678 18.0115 65.6407 18.1103C65.9508 18.3881 65.8597 18.5704 65.3673 18.6571C63.9098 18.4764 62.7704 18.9776 61.9493 20.161C61.5235 20.9775 61.0677 21.7978 60.5821 22.622C60.3997 23.8068 60.3997 24.9919 60.5821 26.1767C61.0171 26.8403 61.2452 27.5693 61.2657 28.3642C60.811 27.8192 60.4919 27.1813 60.3087 26.4501C60.1263 24.9919 60.1263 23.5333 60.3087 22.0751C61.8618 18.5863 64.5508 16.9457 68.3751 17.1532Z" fill="#E57A65"/>
<path fill-rule="evenodd" clip-rule="evenodd" d="M64.5469 32.1923C63.3509 30.9968 62.2572 29.7207 61.2657 28.3642C61.2452 27.5693 61.0171 26.8403 60.5821 26.1767C60.3997 24.9919 60.3997 23.8068 60.5821 22.622C61.0677 21.7979 61.5235 20.9776 61.9493 20.1611C62.7704 18.9776 63.9098 18.4764 65.3673 18.6572C65.8597 18.5705 65.9508 18.3881 65.6407 18.1103C66.4678 18.0116 67.2882 17.8749 68.1016 17.7001C69.0179 17.9752 69.9293 18.2486 70.836 18.5204C70.9342 19.032 71.2076 19.4422 71.6563 19.7509C72.9601 20.0889 74.1449 20.6358 75.211 21.3915C74.9614 22.0295 74.5512 22.5307 73.9805 22.8954C73.8455 23.3422 73.8001 23.7981 73.8438 24.2626C73.8135 24.4313 73.7224 24.5681 73.5704 24.6728C72.8247 24.8965 72.0955 24.8511 71.3829 24.5361C70.571 22.5813 69.1585 21.3962 67.1446 20.9814C65.067 21.0992 63.9279 22.193 63.7266 24.2626C63.7482 25.2847 64.0673 26.1964 64.6837 26.997C67.3308 29.6898 70.0195 32.3329 72.7501 34.9267C75.4902 32.2776 78.2246 29.6343 80.9532 26.997C80.8034 27.5149 80.5299 27.9704 80.1329 28.3642C80.5726 29.065 81.1651 29.6119 81.9102 30.0048C82.0191 29.2578 82.4292 28.7566 83.1407 28.5009C82.6564 28.3546 82.5654 28.1266 82.8673 27.8173C83.1347 27.9477 83.3625 28.1299 83.5508 28.3642C83.7939 27.5742 84.1584 26.8452 84.6446 26.1767C84.827 25.174 84.827 24.1716 84.6446 23.1689C84.6093 22.4845 84.3359 21.9376 83.8243 21.5283C83.6892 21.0815 83.6438 20.6256 83.6876 20.1611C82.9094 20.2456 82.4992 20.7011 82.4571 21.5283C82.0871 21.2042 81.768 20.8395 81.5001 20.4345C81.7257 20.1922 81.9991 20.1012 82.3204 20.1611C82.3669 19.7996 82.2758 19.4805 82.0469 19.204C79.7919 18.0881 77.4223 17.769 74.9376 18.247C78.3946 16.7603 81.4481 17.3983 84.0977 20.1611C85.7805 23.0212 85.7348 25.8467 83.961 28.6376C80.7457 32.264 77.3731 35.773 73.8438 39.165C73.5078 39.3785 73.1433 39.5152 72.7501 39.5751C71.7348 39.154 70.8232 38.5615 70.0157 37.7978C68.1448 35.9726 66.3218 34.1042 64.5469 32.1923Z" fill="#F57556"/>
<path fill-rule="evenodd" clip-rule="evenodd" d="M73.8438 24.2627C74.6627 22.9595 75.7564 21.9114 77.125 21.1182C80.2999 20.7668 81.8038 22.1796 81.6367 25.3564C81.3299 25.8779 81.1021 26.4248 80.9531 26.9971C78.2245 29.6344 75.4901 32.2777 72.75 34.9268C70.0195 32.3329 67.3307 29.6899 64.6836 26.9971C64.0673 26.1964 63.7482 25.2848 63.7266 24.2627C63.9278 22.193 65.067 21.0993 67.1445 20.9814C69.1584 21.3962 70.571 22.5813 71.3828 24.5361C72.0954 24.8511 72.8246 24.8965 73.5703 24.6729C73.7223 24.5681 73.8134 24.4314 73.8438 24.2627Z" fill="#FCFAF7"/>
<path fill-rule="evenodd" clip-rule="evenodd" d="M74.9375 18.2471C74.7185 18.6687 74.6274 19.1243 74.6641 19.6143C75.5355 19.7619 76.2191 19.4885 76.7148 18.7939C77.4367 19.3848 78.2114 19.4762 79.0391 19.0674C79.5107 19.2082 79.9666 19.3906 80.4062 19.6143C78.6817 19.8415 76.9497 19.9782 75.2109 20.0244C75.7034 20.1111 75.7945 20.2935 75.4844 20.5713C77.1193 20.4811 78.7599 20.4811 80.4062 20.5713C80.6567 20.6736 80.8848 20.8103 81.0898 20.9814C81.2096 21.7679 81.483 22.4971 81.9102 23.1689C81.9654 22.6888 82.1021 22.2332 82.3203 21.8018C82.4114 22.0295 82.5027 22.2576 82.5938 22.4854C82.4562 23.6316 82.2741 24.771 82.0469 25.9033C81.7677 26.3649 81.4029 26.7294 80.9531 26.9971C81.1021 26.4248 81.3299 25.8779 81.6367 25.3564C81.8038 22.1796 80.2999 20.7668 77.125 21.1182C75.7564 21.9114 74.6627 22.9595 73.8438 24.2627C73.8 23.7981 73.8454 23.3423 73.9805 22.8955C74.5511 22.5307 74.9613 22.0295 75.2109 21.3916C74.1448 20.6358 72.96 20.0889 71.6562 19.751C71.2075 19.4423 70.9341 19.0321 70.8359 18.5205C71.5034 18.8095 72.1416 19.174 72.75 19.6143C73.4027 19.0157 74.1317 18.5599 74.9375 18.2471Z" fill="#F1755A"/>
<path fill-rule="evenodd" clip-rule="evenodd" d="M80.9532 26.9972C81.403 26.7295 81.7678 26.365 82.0469 25.9034C82.2742 24.7711 82.4563 23.6317 82.5938 22.4855C82.5028 22.2577 82.4114 22.0297 82.3204 21.8019C82.1022 22.2334 81.9655 22.6889 81.9102 23.1691C81.4831 22.4972 81.2097 21.768 81.0899 20.9816C80.8848 20.8104 80.6568 20.6737 80.4063 20.5714C78.76 20.4812 77.1193 20.4812 75.4844 20.5714C75.7945 20.2936 75.7035 20.1112 75.211 20.0245C76.9498 19.9783 78.6818 19.8416 80.4063 19.6144C79.9666 19.3907 79.5108 19.2083 79.0391 19.0675C78.2114 19.4763 77.4368 19.385 76.7149 18.7941C76.2192 19.4886 75.5356 19.762 74.6641 19.6144C74.6275 19.1244 74.7185 18.6688 74.9376 18.2472C77.4223 17.7692 79.7919 18.0883 82.0469 19.2042C82.2758 19.4807 82.3669 19.7998 82.3204 20.1613C81.9991 20.1014 81.7257 20.1924 81.5001 20.4347C81.768 20.8397 82.0871 21.2044 82.4571 21.5284C82.4992 20.7013 82.9094 20.2458 83.6876 20.1613C83.6438 20.6258 83.6892 21.0816 83.8243 21.5284C84.3359 21.9378 84.6093 22.4847 84.6446 23.1691C84.827 24.1718 84.827 25.1742 84.6446 26.1769C84.1584 26.8454 83.7939 27.5744 83.5509 28.3644C83.3625 28.13 83.1347 27.9479 82.8673 27.8175C82.5654 28.1268 82.6564 28.3548 83.1407 28.5011C82.4292 28.7568 82.0191 29.258 81.9102 30.005C81.1651 29.6121 80.5726 29.0652 80.1329 28.3644C80.5299 27.9706 80.8034 27.5151 80.9532 26.9972Z" fill="#F87450"/>
<path fill-rule="evenodd" clip-rule="evenodd" d="M58.2578 33.0127C58.3478 34.5729 58.2564 36.1222 57.9844 37.6611C57.8184 37.6272 57.7273 37.5362 57.7109 37.3877C57.8933 35.9295 58.0754 34.4709 58.2578 33.0127Z" fill="#898989"/>
<path fill-rule="evenodd" clip-rule="evenodd" d="M49.2344 23.9893C49.2508 23.8408 49.3418 23.7497 49.5078 23.7158C49.8715 31.8727 49.8715 39.9845 49.5078 48.0518C49.5983 39.984 49.5073 31.9632 49.2344 23.9893Z" fill="#2A2A2A"/>
<path fill-rule="evenodd" clip-rule="evenodd" d="M92.1645 37.1143C92.4368 40.7116 92.5279 44.3576 92.4379 48.0518C90.7973 48.0518 89.1567 48.0518 87.516 48.0518C87.4706 45.8623 87.516 43.6748 87.6528 41.4893C89.4752 40.3501 90.9791 38.8919 92.1645 37.1143Z" fill="#FCFCFC"/>
<path fill-rule="evenodd" clip-rule="evenodd" d="M52.7891 37.3877C54.3296 38.9709 56.0159 40.4291 57.8477 41.7627C57.9844 43.857 58.0298 45.9534 57.9844 48.0518C56.2527 48.0518 54.5207 48.0518 52.7891 48.0518C52.7891 44.4971 52.7891 40.9424 52.7891 37.3877Z" fill="#F4F4F4"/>
<path fill-rule="evenodd" clip-rule="evenodd" d="M92.1641 37.1143C92.1805 36.9658 92.2715 36.8747 92.4375 36.8408C92.8001 40.6219 92.8001 44.3587 92.4375 48.0518C92.5275 44.3576 92.4364 40.7116 92.1641 37.1143Z" fill="#7D7D7E"/>
<path fill-rule="evenodd" clip-rule="evenodd" d="M61.5391 43.9502C68.917 46.4956 76.2998 46.4956 83.6875 43.9502C83.9574 45.2641 84.0487 46.6312 83.9609 48.0518C76.4871 48.0518 69.0129 48.0518 61.5391 48.0518C61.5391 46.6846 61.5391 45.3174 61.5391 43.9502Z" fill="#F8F8F8"/>
<path fill-rule="evenodd" clip-rule="evenodd" d="M83.6875 43.9502C83.7039 43.8017 83.795 43.7107 83.9609 43.6768C84.3205 45.1768 84.3205 46.6354 83.9609 48.0518C84.0487 46.6312 83.9574 45.2641 83.6875 43.9502Z" fill="#616162"/>
<path fill-rule="evenodd" clip-rule="evenodd" d="M61.5401 43.9502C61.5401 45.3174 61.5401 46.6846 61.5401 48.0518C69.014 48.0518 76.4881 48.0518 83.962 48.0518C76.4438 48.3246 68.8786 48.4157 61.2667 48.3252C61.1789 46.8142 61.27 45.3557 61.5401 43.9502Z" fill="#6B6A6A"/>
<path fill-rule="evenodd" clip-rule="evenodd" d="M100.914 51.0591C82.0469 51.4236 63.1797 51.4236 44.3125 51.0591C63.2284 51.0558 82.0955 51.0558 100.914 51.0591Z" fill="#212120"/>
<path fill-rule="evenodd" clip-rule="evenodd" d="M48.4147 64.4585C54.0434 63.8296 57.9169 66.1084 60.0358 71.2944C61.044 77.7172 58.4463 81.7731 52.2428 83.4624C46.1892 83.8821 42.5891 81.1021 41.442 75.1225C41.1651 69.8386 43.4893 66.2839 48.4147 64.4585Z" fill="#080808"/>
<path fill-rule="evenodd" clip-rule="evenodd" d="M114.313 64.4584C122.432 64.0561 126.306 67.8843 125.934 75.9427C124.324 81.4673 120.633 83.9739 114.859 83.4623C109.024 81.6313 106.517 77.6665 107.34 71.5677C108.445 67.9562 110.77 65.5863 114.313 64.4584Z" fill="#080808"/>
<path fill-rule="evenodd" clip-rule="evenodd" d="M134.547 72.6615C134.531 72.513 134.44 72.422 134.274 72.3881C134.001 75.9381 133.91 79.4928 134.001 83.0521C132.797 83.4139 131.567 83.4139 130.309 83.0521C130.172 76.946 130.127 70.8393 130.172 64.7318C131.452 64.6864 132.728 64.7321 134.001 64.8685C136.315 68.2679 138.731 71.5948 141.247 74.849C141.383 71.4778 141.429 68.1055 141.383 64.7318C142.751 64.7318 144.118 64.7318 145.485 64.7318C145.574 70.9047 145.483 77.057 145.211 83.1889C144.118 83.3712 143.024 83.3712 141.93 83.1889C139.5 79.6478 137.039 76.1388 134.547 72.6615Z" fill="#09080A"/>
<path fill-rule="evenodd" clip-rule="evenodd" d="M7.12547 64.7316C8.5952 64.6419 10.0534 64.733 11.5005 65.0051C13.8515 70.645 16.1757 76.2961 18.4731 81.9582C18.6555 82.3227 18.6555 82.6874 18.4731 83.0519C17.1748 83.3623 15.8533 83.4079 14.5083 83.1886C14.0946 82.0408 13.6388 80.9013 13.1411 79.7707C10.5938 79.4521 8.04176 79.4065 5.48485 79.634C4.99102 80.842 4.44414 82.0268 3.84422 83.1886C2.57137 83.3251 1.29551 83.3708 0.0160962 83.3254C-0.0276538 82.8608 0.0177369 82.405 0.152815 81.9582C2.61239 76.2641 4.9366 70.5219 7.12547 64.7316Z" fill="#070708"/>
<path fill-rule="evenodd" clip-rule="evenodd" d="M30.3672 65.0049C34.4398 65.5665 37.0374 67.8451 38.1602 71.8408C38.902 77.5204 36.5778 81.2118 31.1875 82.915C28.1458 83.3859 25.138 83.4313 22.1641 83.0518C22.1641 77.0361 22.1641 71.0205 22.1641 65.0049C24.8984 65.0049 27.6328 65.0049 30.3672 65.0049Z" fill="#070707"/>
<path fill-rule="evenodd" clip-rule="evenodd" d="M73.2969 65.0049C76.5177 65.5813 78.1583 67.4954 78.2188 70.7471C78.4525 73.8834 77.1767 76.1163 74.3906 77.4463C72.4093 77.8266 70.4042 77.9634 68.375 77.8564C68.4204 79.5906 68.375 81.3223 68.2383 83.0518C66.9805 83.4135 65.75 83.4135 64.5469 83.0518C64.5469 77.0361 64.5469 71.0205 64.5469 65.0049C67.4636 65.0049 70.3801 65.0049 73.2969 65.0049Z" fill="#050405"/>
<path fill-rule="evenodd" clip-rule="evenodd" d="M80.9531 64.7314C85.875 64.7314 90.7969 64.7314 95.7188 64.7314C95.7188 66.0076 95.7188 67.2834 95.7188 68.5596C93.8957 68.5596 92.073 68.5596 90.25 68.5596C90.2957 73.3912 90.25 78.2218 90.1133 83.0518C88.8371 83.4163 87.5613 83.4163 86.2852 83.0518C86.1484 78.2218 86.1028 73.3912 86.1484 68.5596C84.4168 68.5596 82.6848 68.5596 80.9531 68.5596C80.9531 67.2834 80.9531 66.0076 80.9531 64.7314Z" fill="#070708"/>
<path fill-rule="evenodd" clip-rule="evenodd" d="M99.2734 64.7314C100.55 64.7314 101.825 64.7314 103.102 64.7314C103.102 70.9295 103.102 77.1272 103.102 83.3252C101.825 83.3252 100.55 83.3252 99.2734 83.3252C99.2734 77.1272 99.2734 70.9295 99.2734 64.7314Z" fill="#030303"/>
<path fill-rule="evenodd" clip-rule="evenodd" d="M73.2975 65.0051C70.3807 65.0051 67.4642 65.0051 64.5475 65.0051C64.5475 71.0207 64.5475 77.0363 64.5475 83.0519C64.2749 76.9926 64.1835 70.8856 64.274 64.7316C67.3308 64.6419 70.3386 64.733 73.2975 65.0051Z" fill="#232222"/>
<path fill-rule="evenodd" clip-rule="evenodd" d="M49.5082 68.2861C54.9379 68.48 56.9886 71.2144 55.6605 76.4893C53.7891 79.5695 51.1915 80.3445 47.8676 78.8135C45.2144 76.4338 44.7129 73.654 46.3637 70.4736C47.3158 69.5606 48.3639 68.8314 49.5082 68.2861Z" fill="#F9F9F8"/>
<path fill-rule="evenodd" clip-rule="evenodd" d="M115.133 68.2859C120.055 68.1489 122.288 70.5188 121.832 75.3953C120.459 79.137 117.861 80.3674 114.039 79.0867C111.344 77.1032 110.569 74.5055 111.715 71.2937C112.576 69.929 113.715 68.9266 115.133 68.2859Z" fill="#FAFAFA"/>
<path fill-rule="evenodd" clip-rule="evenodd" d="M25.9922 68.5599C27.4534 68.5146 28.9117 68.5602 30.3672 68.6967C33.9249 70.3887 34.973 73.0774 33.5117 76.7631C32.7428 77.9011 31.6947 78.6758 30.3672 79.0873C28.9117 79.2237 27.4534 79.2694 25.9922 79.224C25.9922 75.6693 25.9922 72.1146 25.9922 68.5599Z" fill="#F8F8F8"/>
<path fill-rule="evenodd" clip-rule="evenodd" d="M72.75 68.833C73.2616 68.9312 73.6718 69.2046 73.9805 69.6533C74.2175 70.8718 74.1265 72.0566 73.707 73.208C73.4793 73.4358 73.2512 73.6638 73.0234 73.8916C71.4766 74.028 69.927 74.0737 68.375 74.0283C68.375 72.2966 68.375 70.5647 68.375 68.833C69.8332 68.833 71.2918 68.833 72.75 68.833Z" fill="#FBFBFB"/>
<path fill-rule="evenodd" clip-rule="evenodd" d="M72.7505 68.8332C71.2923 68.8332 69.8338 68.8332 68.3755 68.8332C68.3755 70.5649 68.3755 72.2969 68.3755 74.0286C68.1046 72.257 68.0135 70.4339 68.1021 68.5598C69.7039 68.4718 71.2535 68.5628 72.7505 68.8332Z" fill="#696869"/>
<path fill-rule="evenodd" clip-rule="evenodd" d="M11.2266 75.1221C10.7079 75.4789 10.0696 75.661 9.3125 75.6689C8.62207 75.6681 7.98387 75.5768 7.39844 75.3955C7.82172 73.6693 8.45992 72.0287 9.3125 70.4736C10.1118 71.9609 10.7497 73.5104 11.2266 75.1221Z" fill="#F0F0F0"/>
<path fill-rule="evenodd" clip-rule="evenodd" d="M11.2266 75.1221C11.4738 75.3159 11.5648 75.5894 11.5 75.9424C10.0303 76.0321 8.57203 75.941 7.125 75.6689C7.15891 75.503 7.24996 75.4119 7.39844 75.3955C7.98387 75.5768 8.62207 75.6681 9.3125 75.6689C10.0696 75.661 10.7079 75.4789 11.2266 75.1221Z" fill="#A6A6A6"/>
<path fill-rule="evenodd" clip-rule="evenodd" d="M30.3678 65.005C27.6334 65.005 24.899 65.005 22.1647 65.005C22.1647 71.0206 22.1647 77.0363 22.1647 83.0519C21.892 76.9925 21.8007 70.8856 21.8912 64.7316C24.7661 64.6419 27.5916 64.7332 30.3678 65.005Z" fill="#2A2A2A"/>
<path fill-rule="evenodd" clip-rule="evenodd" d="M134.548 72.6611C134.365 76.1248 134.183 79.5881 134.001 83.0518C133.91 79.4924 134.001 75.9377 134.274 72.3877C134.44 72.4216 134.531 72.5127 134.548 72.6611Z" fill="#646463"/>
</svg>
