<svg width="45" height="36" viewBox="0 0 45 36" fill="none" xmlns="http://www.w3.org/2000/svg">
<path d="M14.2942 9C14.2942 7.50816 15.1309 6.07742 16.6201 5.02252C18.1094 3.96763 20.1293 3.375 22.2354 3.375C24.3415 3.375 26.3614 3.96763 27.8507 5.02252C29.3399 6.07742 30.1766 7.50816 30.1766 9C30.1766 10.4918 29.3399 11.9226 27.8507 12.9775C26.3614 14.0324 24.3415 14.625 22.2354 14.625C20.1293 14.625 18.1094 14.0324 16.6201 12.9775C15.1309 11.9226 14.2942 10.4918 14.2942 9ZM34.9413 9C34.9413 6.61305 33.6026 4.32387 31.2198 2.63604C28.837 0.948212 25.6052 0 22.2354 0C18.8656 0 15.6338 0.948212 13.251 2.63604C10.8682 4.32387 9.52953 6.61305 9.52953 9C9.52953 11.3869 10.8682 13.6761 13.251 15.364C15.6338 17.0518 18.8656 18 22.2354 18C25.6052 18 28.837 17.0518 31.2198 15.364C33.6026 13.6761 34.9413 11.3869 34.9413 9ZM39.577 32.625H4.88394C5.7674 28.1742 11.1674 24.75 17.6891 24.75H26.7619C33.2836 24.75 38.6836 28.1742 39.567 32.625H39.577ZM44.4707 33.9117C44.4707 26.9859 36.5494 21.375 26.7718 21.375H17.699C7.92144 21.375 0.000114441 26.9859 0.000114441 33.9117C0.000114441 35.0648 1.32034 36 2.94828 36H41.5225C43.1505 36 44.4707 35.0648 44.4707 33.9117Z" fill="#F8755B"/>
</svg>
