<?xml version="1.0" encoding="UTF-8"?>
<svg version="1.1" xmlns="http://www.w3.org/2000/svg" width="1024" height="1024">
<path d="M0 0 C337.92 0 675.84 0 1024 0 C1024 337.92 1024 675.84 1024 1024 C686.08 1024 348.16 1024 0 1024 C0 686.08 0 348.16 0 0 Z " fill="#FEFEFE" transform="translate(0,0)"/>
<path d="M0 0 C10.95623751 6.75805305 19.77623319 16.11877035 23.12890625 28.91796875 C24.2702119 36.83651205 24.96991613 45.6229211 20.5078125 52.546875 C15.09550551 56.49588928 9.97902667 56.40420783 3.5078125 55.546875 C-4.59682024 52.84949338 -9.4478006 46.74602934 -14.3046875 40.046875 C-17.18448417 33.98414518 -17.94856163 28.16429987 -17.4921875 21.546875 C-15.4921875 19.546875 -15.4921875 19.546875 -12.6171875 19.171875 C-9.4921875 19.546875 -9.4921875 19.546875 -7.2421875 21.046875 C-5.33381049 23.77312787 -4.79595646 26.16460401 -4.109375 29.38671875 C-2.70672756 34.29598478 -0.00957784 38.37089749 4.0078125 41.484375 C6.51889955 42.55158699 8.83432266 43.05227938 11.5078125 43.546875 C9.81931159 31.62804503 8.03829384 22.65857918 -1.4921875 14.546875 C-9.83424621 9.28721922 -18.8089921 8.15430844 -28.4921875 9.546875 C-31.83903826 10.83695053 -34.55242577 12.52744408 -37.4921875 14.546875 C-38.4821875 14.876875 -39.4721875 15.206875 -40.4921875 15.546875 C-41.59258587 17.35032229 -41.59258587 17.35032229 -42.4921875 19.546875 C-42.894375 20.30484375 -43.2965625 21.0628125 -43.7109375 21.84375 C-45.76542034 25.77733299 -47.62436881 29.43862527 -48.5546875 33.796875 C-49.60199946 37.98612286 -50.58662682 40.34330809 -53.4921875 43.546875 C-57.22830516 45.3379726 -61.02201247 46.39725542 -65.140625 46.81640625 C-67.68618279 47.31920409 -67.68618279 47.31920409 -68.78515625 49.7265625 C-69.08035156 50.61601562 -69.37554687 51.50546875 -69.6796875 52.421875 C-70.75170151 55.55124354 -71.63593935 57.76250277 -73.4921875 60.546875 C-73.40450373 63.96654203 -72.83725685 65.21195475 -70.3671875 67.609375 C-68.9440625 68.5684375 -68.9440625 68.5684375 -67.4921875 69.546875 C-66.5228125 70.289375 -65.5534375 71.031875 -64.5546875 71.796875 C-58.55324644 75.1266219 -50.57185239 74.39680519 -44.0546875 73.0390625 C-40.52684577 71.84014754 -37.72526277 70.03723082 -34.8046875 67.796875 C-31.84098353 65.53170996 -31.84098353 65.53170996 -28.6171875 65.671875 C-26.4921875 66.546875 -26.4921875 66.546875 -25.4921875 67.546875 C-25.3567096 69.9723295 -25.28161004 72.37328661 -25.24609375 74.80078125 C-25.21311802 76.31055186 -25.17990709 77.82031735 -25.14648438 79.33007812 C-25.09933703 81.71065242 -25.05498969 84.09121182 -25.01538086 86.47192383 C-24.97526179 88.76928095 -24.92377843 91.06618249 -24.87109375 93.36328125 C-24.8626796 94.06256241 -24.85426544 94.76184357 -24.84559631 95.48231506 C-24.51050506 109.11135356 -18.85607066 121.73620616 -9.4921875 131.546875 C-8.18521404 132.58108878 -6.8594312 133.59376302 -5.4921875 134.546875 C-5.51539063 133.27070313 -5.53859375 131.99453125 -5.5625 130.6796875 C-5.58125579 129.0104225 -5.59945619 127.3411512 -5.6171875 125.671875 C-5.63394531 124.83011719 -5.65070313 123.98835938 -5.66796875 123.12109375 C-5.67441406 122.31542969 -5.68085938 121.50976562 -5.6875 120.6796875 C-5.69797363 119.93605957 -5.70844727 119.19243164 -5.71923828 118.42626953 C-5.4921875 116.546875 -5.4921875 116.546875 -3.4921875 114.546875 C0.0078125 114.296875 0.0078125 114.296875 3.5078125 114.546875 C6.22445043 117.26351293 5.81534371 118.84882153 5.921875 122.6484375 C5.96054687 123.86015625 5.99921875 125.071875 6.0390625 126.3203125 C6.07 127.59132813 6.1009375 128.86234375 6.1328125 130.171875 C6.17148437 131.450625 6.21015625 132.729375 6.25 134.046875 C6.34452299 137.21339517 6.43007607 140.3799054 6.5078125 143.546875 C20.45565519 149.30402455 32.72532544 151.90889013 47.8203125 151.984375 C48.98804199 151.99436523 50.15577148 152.00435547 51.35888672 152.01464844 C70.97201875 151.82032158 89.88838283 144.40057062 104.1875 130.953125 C113.76527783 121.02061466 119.11048612 108.50868043 120.0703125 94.796875 C120.15410156 93.62640625 120.23789062 92.4559375 120.32421875 91.25 C120.38480469 90.35796875 120.44539062 89.4659375 120.5078125 88.546875 C119.91613281 88.50949219 119.32445312 88.47210938 118.71484375 88.43359375 C109.996199 87.70822526 109.996199 87.70822526 106.5078125 84.546875 C105.5078125 81.546875 105.5078125 81.546875 105.5078125 78.546875 C106.72924805 76.86889648 106.72924805 76.86889648 108.5078125 75.546875 C110.58911133 75.26977539 110.58911133 75.26977539 112.96484375 75.39453125 C113.83044922 75.42224609 114.69605469 75.44996094 115.58789062 75.47851562 C117.39800541 75.56520447 119.20791523 75.6562939 121.01757812 75.75195312 C126.74195996 75.9259336 130.04213581 75.5353038 134.5078125 71.546875 C138.6975066 66.23992914 141.32229992 60.01525097 143.55078125 53.67578125 C144.57994655 51.38641353 145.55675417 50.11266105 147.5078125 48.546875 C150.32896738 48.12370177 151.84732157 48.15969066 154.3203125 49.609375 C156.1813793 52.64585241 156.14167593 55.15630364 155.5078125 58.546875 C151.90930782 69.60381885 146.30613006 79.88243229 136.5078125 86.546875 C135.1878125 86.876875 133.8678125 87.206875 132.5078125 87.546875 C132.5078125 115.596875 132.5078125 143.646875 132.5078125 172.546875 C138.4478125 172.546875 144.3878125 172.546875 150.5078125 172.546875 C151.8278125 173.866875 153.1478125 175.186875 154.5078125 176.546875 C154.35987248 180.2453754 154.14975677 181.90493073 151.5078125 184.546875 C148.76908564 184.74679278 146.13112864 184.82049283 143.39100647 184.80757141 C142.1175499 184.81330973 142.1175499 184.81330973 140.81836694 184.81916398 C137.95705574 184.82953069 135.09594383 184.82549491 132.23461914 184.8215332 C130.18995476 184.82587765 128.14529202 184.8310599 126.10063171 184.83702087 C120.53459228 184.8504509 114.96862059 184.85098511 109.4025681 184.84845757 C104.76263708 184.84739057 100.12271991 184.85226428 95.48279184 184.857063 C84.5400311 184.86817204 73.59730468 184.86858775 62.65454102 184.86254883 C51.35056952 184.85650667 40.04672243 184.86882305 28.74277216 184.8901189 C19.05103734 184.90770879 9.3593422 184.91374039 -0.33240801 184.91048115 C-6.12676501 184.90866397 -11.92103329 184.91134763 -17.7153759 184.92519569 C-23.16296682 184.937727 -28.6103632 184.93587464 -34.05795097 184.92278481 C-36.06110193 184.92040919 -38.06426638 184.92318869 -40.06740189 184.93140793 C-42.79462961 184.94179413 -45.52119468 184.93384062 -48.24839783 184.9210968 C-49.04761231 184.92847109 -49.84682679 184.93584537 -50.67025989 184.94344312 C-55.97912557 184.89098281 -55.97912557 184.89098281 -58.48398685 183.21098614 C-60.07779202 180.58029061 -59.86667801 178.54279908 -59.4921875 175.546875 C-58.5021875 174.556875 -57.5121875 173.566875 -56.4921875 172.546875 C-50.2221875 172.546875 -43.9521875 172.546875 -37.4921875 172.546875 C-37.4921875 143.506875 -37.4921875 114.466875 -37.4921875 84.546875 C-40.4621875 85.536875 -43.4321875 86.526875 -46.4921875 87.546875 C-57.77770501 89.14955204 -67.15072478 85.89570709 -76.3046875 79.359375 C-85.56401131 71.55676217 -91.28681714 60.50105485 -92.90234375 48.5 C-93.0576422 43.82754229 -93.0576422 43.82754229 -92.4921875 41.546875 C-89.14197968 39.31340312 -86.3812525 38.56695762 -82.4921875 37.546875 C-81.82807861 37.37244873 -81.16396973 37.19802246 -80.47973633 37.01831055 C-75.5458831 35.74940204 -70.59849636 34.74623979 -65.56640625 33.94140625 C-63.44082337 33.63461245 -63.44082337 33.63461245 -61.4921875 32.546875 C-60.84399591 30.56694433 -60.27375888 28.56125075 -59.7421875 26.546875 C-57.89418498 20.31412851 -55.57024547 15.58739435 -51.4921875 10.546875 C-50.77482422 9.62648438 -50.77482422 9.62648438 -50.04296875 8.6875 C-37.83730808 -5.20912121 -16.29960111 -8.26589458 0 0 Z " fill="#080809" transform="translate(464.4921875,362.453125)"/>
<path d="M0 0 C1.76953125 1.16796875 1.76953125 1.16796875 3.3671875 2.8046875 C4.7124502 4.42936245 4.7124502 4.42936245 7.01953125 4.16796875 C10.19458839 3.01340252 12.47001845 1.38749907 15.12109375 -0.67578125 C20.12524879 -4.18580469 26.96908166 -3.31090558 32.76953125 -2.83203125 C38.85020543 -1.23904026 44.77862498 2.25687943 48.76953125 7.16796875 C51.48035375 12.35999114 52.35048016 16.65324963 52.33203125 22.48046875 C52.33106445 23.22522461 52.33009766 23.96998047 52.32910156 24.73730469 C52.11605413 31.45267657 50.01909167 35.95307609 45.76953125 41.16796875 C45.08890625 42.09609375 44.40828125 43.02421875 43.70703125 43.98046875 C42.35803445 45.50352965 40.95613328 46.98066148 39.5168457 48.41870117 C37.12277443 50.81447444 34.7769483 53.24389911 32.44413757 55.69856262 C30.2189602 58.03158542 27.97162538 60.34278117 25.72338867 62.65356445 C24.54391793 63.87346488 23.37169984 65.10041873 22.20678711 66.33422852 C20.51081559 68.12750792 18.79002936 69.89341783 17.0625 71.65625 C16.55075729 72.20928299 16.03901459 72.76231598 15.51176453 73.33210754 C12.6443984 76.20291275 10.54492131 77.52278869 6.54418945 77.63378906 C1.97860988 77.07036329 0.77235605 76.00900835 -2.23046875 72.60546875 C-5.14566182 69.43213645 -7.97473834 66.41886752 -11.29296875 63.66796875 C-15.20461969 60.32185771 -18.53889445 56.57999645 -21.9296875 52.71484375 C-24.19004392 50.21271746 -26.55091485 47.8798531 -28.98046875 45.54296875 C-35.99871744 38.62287738 -39.46040099 32.41647708 -39.60546875 22.48046875 C-39.635002 14.20469865 -38.0283422 10.00412721 -32.29296875 4.2109375 C-23.15681135 -4.28499675 -11.30741676 -5.64289823 0 0 Z " fill="#F47556" transform="translate(505.23046875,425.83203125)"/>
<path d="M0 0 C7.76238889 5.20449693 12.79796466 12.68014273 14.86328125 21.75 C15.85420682 32.30450955 15.20103876 41.70316604 8.91015625 50.47265625 C1.65863851 59.08066419 -6.50910961 63.89382505 -17.6953125 65.00390625 C-27.28409895 65.42554083 -35.89426803 62.5929721 -43.35546875 56.5078125 C-51.10991289 48.85540052 -54.39931199 39.79609818 -54.76171875 29.0625 C-54.76743225 19.33470153 -51.31239241 11.69609315 -45.01953125 4.2421875 C-32.42563375 -7.90352859 -14.74447394 -8.62565203 0 0 Z " fill="#070707" transform="translate(692.13671875,600.25)"/>
<path d="M0 0 C1.29145974 0.71389713 2.56564364 1.46078103 3.8125 2.25 C4.84375 2.8275 5.875 3.405 6.9375 4 C13.31915514 8.9943388 18.95074743 15.20065802 20.8125 23.25 C22.29526598 35.42381128 20.94392528 46.43078265 13.625 56.625 C4.37469165 65.25862113 -5.62912676 68.70040183 -18.1015625 68.515625 C-27.78036718 67.6825127 -34.89916736 62.41914519 -41.1875 55.25 C-47.75705758 44.95869764 -48.39306391 34.18612201 -47.1875 22.25 C-46.09880479 18.37386963 -44.55013142 15.48674171 -42.1875 12.25 C-41.79949219 11.62222656 -41.41148437 10.99445312 -41.01171875 10.34765625 C-32.27020254 -2.02037133 -13.54135621 -5.6764271 0 0 Z " fill="#060606" transform="translate(445.1875,596.75)"/>
<path d="M0 0 C1.60050201 -0.03077888 1.60050201 -0.03077888 3.2333374 -0.06217957 C3.91997593 -0.07543683 4.60661446 -0.0886941 5.31406021 -0.1023531 C6.8140801 -0.13109272 8.31410827 -0.15940341 9.81414413 -0.18729687 C12.897047 -0.24504854 15.97934083 -0.30508223 19.06164551 -0.38955688 C31.37919174 -0.72491232 41.29793977 0.56654637 50.9375 9.0625 C57.02390085 15.74647476 60.2319036 23.19233644 60.4375 32.25 C59.97604195 41.8283726 57.1911804 51.20608403 50.74609375 58.5546875 C43.3351718 64.68900768 33.39990222 68.26253354 23.88671875 68.23046875 C23.23169876 68.23001053 22.57667877 68.22955231 21.90180969 68.2290802 C20.52949186 68.22607911 19.15717677 68.21825776 17.78491211 68.20581055 C15.6761483 68.1874009 13.56782067 68.1853022 11.45898438 68.18554688 C1.1476657 68.1476657 1.1476657 68.1476657 0 67 C-0.09417773 64.91380978 -0.11742878 62.82439523 -0.11352539 60.73608398 C-0.11367142 60.08244873 -0.11381744 59.42881348 -0.1139679 58.75537109 C-0.11326883 56.58557872 -0.10547678 54.41587121 -0.09765625 52.24609375 C-0.09579205 50.74536689 -0.09436816 49.24463943 -0.09336853 47.74391174 C-0.08954352 43.78681774 -0.0797134 39.82976022 -0.06866455 35.87268066 C-0.05845006 31.83765151 -0.05387083 27.80261647 -0.04882812 23.76757812 C-0.03809111 15.84503531 -0.0210149 7.92252219 0 0 Z " fill="#080808" transform="translate(326,596)"/>
<path d="M0 0 C2.25214504 -0.09320338 4.50539715 -0.15993311 6.75878906 -0.21533203 C8.64068939 -0.27528854 8.64068939 -0.27528854 10.56060791 -0.3364563 C14.35623435 0.03484839 15.43869001 0.59367811 17.859375 3.4453125 C18.87157467 4.97408304 19.83399347 6.53672433 20.75 8.125 C21.8148725 9.7761911 22.87997954 11.42723095 23.9453125 13.078125 C24.70956543 14.32045898 24.70956543 14.32045898 25.48925781 15.58789062 C27.71008113 19.13374298 30.15993764 22.49678162 32.625 25.875 C33.41002201 26.97573055 34.1939598 28.07723555 34.9765625 29.1796875 C36.62251952 31.47385925 38.30587383 33.74116511 40 36 C40.33 24.12 40.66 12.24 41 0 C45.95 0 50.9 0 56 0 C56.02255338 8.71844341 56.04091645 17.43686759 56.05181217 26.15533352 C56.05704041 30.20325742 56.06413699 34.25116041 56.07543945 38.29907227 C56.08627043 42.20235971 56.09227728 46.10562699 56.09487724 50.0089283 C56.09673111 51.50133647 56.100351 52.99374348 56.10573006 54.48614311 C56.11294331 56.56948139 56.11399083 58.65273531 56.11352539 60.73608398 C56.115746 61.92411118 56.11796661 63.11213837 56.12025452 64.33616638 C56 67 56 67 55 68 C50.62755445 69.40973675 47.36307632 69.48226408 43 68 C38.25141819 63.62848708 34.95522464 57.82399803 31.53857422 52.40332031 C29.30736713 48.91807713 26.87825174 45.59002456 24.4375 42.25 C21.54702702 38.21406134 18.74650833 34.13502287 16 30 C15.97494385 31.11560303 15.9498877 32.23120605 15.92407227 33.38061523 C15.83016579 37.5049259 15.72990486 41.6290615 15.62768555 45.75317383 C15.584273 47.5408927 15.54260271 49.32865474 15.50268555 51.11645508 C15.4451354 53.68063391 15.38139797 56.24459412 15.31640625 58.80859375 C15.29133751 60.01484657 15.29133751 60.01484657 15.26576233 61.24546814 C15.11387171 66.88612829 15.11387171 66.88612829 14 68 C11.83519203 68.0989294 9.66706215 68.129711 7.5 68.125 C6.3140625 68.12757813 5.128125 68.13015625 3.90625 68.1328125 C1 68 1 68 0 67 C-0.09417773 64.91380978 -0.11742878 62.82439523 -0.11352539 60.73608398 C-0.11367142 60.08244873 -0.11381744 59.42881348 -0.1139679 58.75537109 C-0.11326883 56.58557872 -0.10547678 54.41587121 -0.09765625 52.24609375 C-0.09579205 50.74536689 -0.09436816 49.24463943 -0.09336853 47.74391174 C-0.08954352 43.78681774 -0.0797134 39.82976022 -0.06866455 35.87268066 C-0.05845006 31.83765151 -0.05387083 27.80261647 -0.04882812 23.76757812 C-0.03809111 15.84503531 -0.0210149 7.92252219 0 0 Z " fill="#080709" transform="translate(722,596)"/>
<path d="M0 0 C4.51654375 -0.09987254 9.03247989 -0.1719343 13.54980469 -0.21972656 C15.08214534 -0.23967724 16.61441152 -0.26684816 18.14648438 -0.30175781 C28.10273075 -0.52271889 37.39513021 -0.61317087 45.47265625 6.03515625 C45.99730469 6.70417969 46.52195312 7.37320313 47.0625 8.0625 C47.61035156 8.73410156 48.15820312 9.40570312 48.72265625 10.09765625 C52.52776322 15.76458926 51.46712577 23.46681843 51 30 C49.45874879 36.84315536 46.87937112 41.19570104 41 45 C35.19004939 48.05243598 30.56380413 48.38031434 24.0625 48.1875 C22.75055664 48.16719727 22.75055664 48.16719727 21.41210938 48.14648438 C19.27446914 48.11144109 17.13715016 48.05764541 15 48 C15.00523682 48.57032959 15.01047363 49.14065918 15.01586914 49.72827148 C15.03658221 52.29800323 15.0496419 54.86771747 15.0625 57.4375 C15.07087891 58.33533203 15.07925781 59.23316406 15.08789062 60.15820312 C15.09111328 61.01220703 15.09433594 61.86621094 15.09765625 62.74609375 C15.10289307 63.53685303 15.10812988 64.3276123 15.11352539 65.14233398 C15 67 15 67 14 68 C11.83519203 68.0989294 9.66706215 68.129711 7.5 68.125 C6.3140625 68.12757813 5.128125 68.13015625 3.90625 68.1328125 C1 68 1 68 0 67 C-0.09417773 64.91380978 -0.11742878 62.82439523 -0.11352539 60.73608398 C-0.11367142 60.08244873 -0.11381744 59.42881348 -0.1139679 58.75537109 C-0.11326883 56.58557872 -0.10547678 54.41587121 -0.09765625 52.24609375 C-0.09579205 50.74536689 -0.09436816 49.24463943 -0.09336853 47.74391174 C-0.08954352 43.78681774 -0.0797134 39.82976022 -0.06866455 35.87268066 C-0.05845006 31.83765151 -0.05387083 27.80261647 -0.04882812 23.76757812 C-0.03809111 15.84503531 -0.0210149 7.92252219 0 0 Z " fill="#070707" transform="translate(481,596)"/>
<path d="M0 0 C5.28 0 10.56 0 16 0 C20.4001241 10.10839321 24.5991879 20.29111777 28.73266602 30.51147461 C31.02686663 36.18086143 33.34344693 41.83654001 35.74609375 47.4609375 C36.16914795 48.46125 36.59220215 49.4615625 37.02807617 50.4921875 C37.82363736 52.36910789 38.62929795 54.24178985 39.4465332 56.109375 C39.7993335 56.94726562 40.15213379 57.78515625 40.515625 58.6484375 C40.82790039 59.37208496 41.14017578 60.09573242 41.46191406 60.84130859 C42 63 42 63 41 68 C36.38 68 31.76 68 27 68 C22 56.25 22 56.25 22 54 C12.76 54.33 3.52 54.66 -6 55 C-7.65 59.29 -9.3 63.58 -11 68 C-15.95 68 -20.9 68 -26 68 C-24.87497999 60.1248599 -24.87497999 60.1248599 -23.66821289 57.18969727 C-23.39992676 56.52614227 -23.13164062 55.86258728 -22.85522461 55.17892456 C-22.56397705 54.48179352 -22.27272949 53.78466248 -21.97265625 53.06640625 C-21.66779297 52.31900177 -21.36292969 51.57159729 -21.04882812 50.80154419 C-20.06100118 48.38532474 -19.0619719 45.97392284 -18.0625 43.5625 C-17.38079103 41.90171031 -16.6997234 40.24065723 -16.01928711 38.5793457 C-14.02386059 33.71498697 -12.01355384 28.85687746 -10 24 C-9.43744743 22.64097228 -8.87494424 21.28192412 -8.3125 19.92285156 C-5.55933925 13.27445475 -2.78860822 6.63360685 0 0 Z " fill="#060607" transform="translate(272,596)"/>
<path d="M0 0 C4.6697903 2.0226437 7.07556917 4.89466924 9.4375 9.3125 C10.75305745 11.56835753 11.46232985 12.7477174 13.83984375 13.86328125 C16.36122177 14.18752756 17.67478939 14.06257234 20 13 C22.02993893 10.60493287 23.6232034 8.08996067 25.28125 5.42578125 C27.84188735 1.81179081 29.74535963 1.08299937 34 0 C37.9808388 -0.56869126 39.60787751 -0.20759426 43.1875 1.6875 C47.16213966 4.95553705 48.72863076 7.2021788 49.5 12.3125 C48.46012572 19.98157283 42.97769722 25.46255364 37.60546875 30.6875 C37.01325027 31.27547363 36.4210318 31.86344727 35.81086731 32.46923828 C33.94341941 34.32007931 32.06575109 36.16012983 30.1875 38 C28.90881005 39.26361985 27.63080869 40.52793691 26.35351562 41.79296875 C23.24356861 44.8700857 20.12441818 47.93758055 17 51 C12.64868142 49.32186231 9.7844939 46.09030237 6.5546875 42.85546875 C5.94360138 42.24866776 5.33251526 41.64186676 4.70291138 41.01667786 C3.41446683 39.73396682 2.12862228 38.44863955 0.84521484 37.16088867 C-1.11627774 35.19623631 -3.09070929 33.24527677 -5.06640625 31.29492188 C-6.31851891 30.04508236 -7.56984765 28.7944569 -8.8203125 27.54296875 C-9.40990753 26.96258347 -9.99950256 26.38219818 -10.60696411 25.78422546 C-14.1871858 22.16327379 -16.60497261 19.1195545 -17.265625 13.90234375 C-17.20923863 6.81175826 -17.20923863 6.81175826 -15 4 C-10.28266221 -0.14205269 -6.06631654 -1.1963242 0 0 Z " fill="#FBFBF8" transform="translate(496,436)"/>
<path d="M0 0 C17.82 0 35.64 0 54 0 C54 4.62 54 9.24 54 14 C47.4 14 40.8 14 34 14 C34.00523682 15.60029053 34.01047363 17.20058105 34.01586914 18.84936523 C34.03391114 24.76260829 34.04542907 30.67584889 34.05493164 36.58911133 C34.0599737 39.15291757 34.06680714 41.71672091 34.07543945 44.28051758 C34.08751064 47.95655021 34.09322942 51.63254498 34.09765625 55.30859375 C34.10281754 56.46274277 34.10797882 57.61689178 34.11329651 58.80601501 C34.11337204 59.86703934 34.11344757 60.92806366 34.11352539 62.02124023 C34.115746 62.96055893 34.11796661 63.89987762 34.12025452 64.86766052 C34 67 34 67 33 68 C30.83519203 68.0989294 28.66706215 68.129711 26.5 68.125 C25.3140625 68.12757813 24.128125 68.13015625 22.90625 68.1328125 C20 68 20 68 19 67 C18.90653085 65.34261557 18.88255023 63.68125356 18.88647461 62.02124023 C18.88655014 60.96021591 18.88662567 59.89919159 18.88670349 58.80601501 C18.89186478 57.651866 18.89702606 56.49771698 18.90234375 55.30859375 C18.9037587 54.13361832 18.90517365 52.95864288 18.90663147 51.74806213 C18.91225008 47.97784936 18.92480574 44.20769496 18.9375 40.4375 C18.9425126 37.88867273 18.94707592 35.33984453 18.95117188 32.79101562 C18.96222556 26.5273211 18.97950266 20.26367046 19 14 C12.73 14 6.46 14 0 14 C0 9.38 0 4.76 0 0 Z " fill="#050506" transform="translate(542,596)"/>
<path d="M0 0 C5.80095155 3.17410557 10.20944073 6.38648556 12.3125 12.8125 C13.15538843 20.19037528 12.94481543 26.76625108 8.3125 32.8125 C3.46221512 37.85018225 -0.27876717 39.95126178 -7.375 40.1875 C-13.39300075 40.12928476 -17.2568926 38.91214637 -21.6875 34.8125 C-27.19213528 27.75527529 -27.24579309 21.49825219 -26.6875 12.8125 C-24.9580513 6.97561064 -20.49745603 3.33268959 -15.6875 -0.1875 C-10.31613149 -1.97795617 -5.36578617 -1.72796504 0 0 Z " fill="#FAFAF9" transform="translate(679.6875,610.1875)"/>
<path d="M0 0 C4.38589238 2.78366602 7.47821119 6.42682106 9.1171875 11.34375 C9.83037119 18.69973037 9.89133024 25.15941804 5.7109375 31.46484375 C1.99867737 35.84130729 -1.32890415 37.99407062 -7.078125 38.78125 C-12.07222716 38.96326739 -15.81756797 38.83832782 -20.3828125 36.71875 C-25.28080556 32.06565659 -29.32382056 27.69218732 -30.21875 20.73046875 C-30.30984599 14.43573562 -29.87186568 9.40465403 -25.8828125 4.34375 C-17.89879624 -3.01375392 -9.91069408 -4.80102827 0 0 Z " fill="#F9F9F8" transform="translate(441.8828125,611.65625)"/>
<path d="M0 0 C18 0 18 0 24 4 C29.41113983 10.14237494 29.50635324 15.18041625 29.3359375 23.05859375 C28.97510112 27.2921276 28.49766228 29.67807348 25.58203125 32.73828125 C25.05996094 33.15464844 24.53789062 33.57101562 24 34 C23.23236328 34.64001953 23.23236328 34.64001953 22.44921875 35.29296875 C15.38819502 39.88028572 8.73601497 38 0 38 C0 25.46 0 12.92 0 0 Z " fill="#FBFBFB" transform="translate(341,611)"/>
<path d="M0 0 C4.62 0 9.24 0 14 0 C14 22.44 14 44.88 14 68 C9.38 68 4.76 68 0 68 C0 45.56 0 23.12 0 0 Z " fill="#020202" transform="translate(609,596)"/>
<path d="M0 0 C1.27875 0.34933594 2.5575 0.69867187 3.875 1.05859375 C5.58325793 1.51850935 7.29159554 1.97812902 9 2.4375 C10.25876953 2.78264648 10.25876953 2.78264648 11.54296875 3.13476562 C31.34021713 8.42937856 56.56968741 9.01736473 75.65234375 0.8671875 C78 0 78 0 82 0 C82 4.95 82 9.9 82 15 C54.94 15 27.88 15 0 15 C0 10.05 0 5.1 0 0 Z " fill="#F9F9F9" transform="translate(471,520)"/>
<path d="M0 0 C3.90292898 1.30097633 5.18932036 3.44725399 7.6953125 6.6015625 C9.8369053 9.02019881 9.8369053 9.02019881 12.22924805 10.4152832 C18.61745471 14.5714886 18.61745471 14.5714886 19.72753906 18.71679688 C19.88498008 21.83514473 19.78863174 24.82383994 19.5625 27.9375 C19.52189453 29.00291016 19.48128906 30.06832031 19.43945312 31.16601562 C19.33398338 33.77932165 19.17256204 36.39026542 19 39 C12.73 39 6.46 39 0 39 C0 26.13 0 13.26 0 0 Z " fill="#F4F4F4" transform="translate(439,496)"/>
<path d="M0 0 C0.33 0 0.66 0 1 0 C1 13.2 1 26.4 1 40 C-4.94 40 -10.88 40 -17 40 C-17.21644596 36.12200986 -17.37465863 32.25610586 -17.5 28.375 C-17.56703125 27.28058594 -17.6340625 26.18617188 -17.703125 25.05859375 C-17.89706502 17.05856801 -17.89706502 17.05856801 -15.31982422 14.01733398 C-13.27932328 12.50762786 -11.20894186 11.24568428 -9 10 C-7.67283434 8.80925032 -6.36932499 7.58957039 -5.125 6.3125 C-4.29355469 5.47138672 -4.29355469 5.47138672 -3.4453125 4.61328125 C-1.79926894 2.8527926 -1.79926894 2.8527926 0 0 Z " fill="#FCFCFC" transform="translate(583,495)"/>
<path d="M0 0 C2.908125 -0.061875 5.81625 -0.12375 8.8125 -0.1875 C9.72491455 -0.21481201 10.6373291 -0.24212402 11.57739258 -0.27026367 C12.66250122 -0.28150269 12.66250122 -0.28150269 13.76953125 -0.29296875 C14.87711792 -0.31653442 14.87711792 -0.31653442 16.00708008 -0.34057617 C18.57026341 0.09745406 19.42967302 0.96472773 21 3 C21.46875 5.5234375 21.46875 5.5234375 21.5 8.375 C21.5309375 9.31085937 21.561875 10.24671875 21.59375 11.2109375 C20.74286105 15.20787639 19.28929981 16.61364524 16 19 C13.18657811 19.57519487 10.54332795 19.47709684 7.6875 19.3125 C5.150625 19.209375 2.61375 19.10625 0 19 C0 12.73 0 6.46 0 0 Z " fill="#FBFBFB" transform="translate(496,611)"/>
<path d="M0 0 C0.66 0 1.32 0 2 0 C3.17314026 2.76825188 4.33870215 5.53928486 5.5 8.3125 C5.83386719 9.09818359 6.16773438 9.88386719 6.51171875 10.69335938 C6.98544922 11.8293457 6.98544922 11.8293457 7.46875 12.98828125 C7.76201172 13.68477783 8.05527344 14.38127441 8.35742188 15.09887695 C9 17 9 17 9 20 C3.72 20 -1.56 20 -7 20 C-5.04068712 13.14240492 -2.75665244 6.57678502 0 0 Z " fill="#E6E6E6" transform="translate(279,617)"/>
<path d="M0 0 C1.1446875 -0.01417969 2.289375 -0.02835937 3.46875 -0.04296875 C6.5 0.1875 6.5 0.1875 9.5 2.1875 C6.42382812 2.48046875 6.42382812 2.48046875 3.34765625 2.7734375 C2.73792969 2.91007812 2.12820313 3.04671875 1.5 3.1875 C1.17 3.8475 0.84 4.5075 0.5 5.1875 C2.48 5.1875 4.46 5.1875 6.5 5.1875 C6.17 6.1775 5.84 7.1675 5.5 8.1875 C6.82 8.8475 8.14 9.5075 9.5 10.1875 C8.5 11.1875 8.5 11.1875 6.28515625 11.3203125 C5.38667969 11.31773437 4.48820313 11.31515625 3.5625 11.3125 C2.66660156 11.31507813 1.77070312 11.31765625 0.84765625 11.3203125 C-1.54850103 11.18475618 -2.78982582 10.89767418 -4.5 9.1875 C-5.16 9.1875 -5.82 9.1875 -6.5 9.1875 C-6.17 7.8675 -5.84 6.5475 -5.5 5.1875 C-4.84 5.1875 -4.18 5.1875 -3.5 5.1875 C-3.5 4.5275 -3.5 3.8675 -3.5 3.1875 C-7.955 3.6825 -7.955 3.6825 -12.5 4.1875 C-8.34394967 0.03144967 -5.67180171 0.03193582 0 0 Z " fill="#F47451" transform="translate(531.5,422.8125)"/>
<path d="M0 0 C1.875 1.125 1.875 1.125 3 3 C2.875 6.0625 2.875 6.0625 2 9 C-1 11 -1 11 -3.5625 10.75 C-6 10 -6 10 -8 8 C-8.3125 5 -8.3125 5 -8 2 C-4.76746204 -0.15502531 -3.74849077 -0.46856135 0 0 Z " fill="#131312" transform="translate(434,387)"/>
<path d="M0 0 C-0.33 29.7 -0.66 59.4 -1 90 C-1.33 90 -1.66 90 -2 90 C-2 60.96 -2 31.92 -2 2 C-2.66 1.67 -3.32 1.34 -4 1 C-2 0 -2 0 0 0 Z " fill="#2D2D2D" transform="translate(429,445)"/>
<path d="M0 0 C0.66 0.33 1.32 0.66 2 1 C2 6.61 2 12.22 2 18 C1.34 18.33 0.68 18.66 0 19 C-0.20625 20.19625 -0.4125 21.3925 -0.625 22.625 C-1.84349625 28.17814682 -5.68114699 30.67088414 -10 34 C-10.66 34.66 -11.32 35.32 -12 36 C-12.99 35.67 -13.98 35.34 -15 35 C-13.625 33 -13.625 33 -12 31 C-11.34 31 -10.68 31 -10 31 C-9.73316406 30.43539063 -9.46632813 29.87078125 -9.19140625 29.2890625 C-7.92421921 26.8544015 -6.48139767 24.6434295 -4.9375 22.375 C-1.52213211 17.34797929 -0.75675123 13.9355398 -0.4375 7.875 C-0.39431641 7.12089844 -0.35113281 6.36679687 -0.30664062 5.58984375 C-0.2005168 3.72678112 -0.09974999 1.86341476 0 0 Z " fill="#FDDDD3" transform="translate(557,441)"/>
<path d="M0 0 C1.14466615 3.43399845 1 5.30785102 1 9 C0.01 10.485 0.01 10.485 -1 12 C-1.66 11.67 -2.32 11.34 -3 11 C-2.7178711 13.27203802 -2.42397144 15.54261684 -2.125 17.8125 C-1.96257812 19.07707031 -1.80015625 20.34164063 -1.6328125 21.64453125 C-1.20431547 25.11699317 -1.20431547 25.11699317 1 28 C0.67 28.99 0.34 29.98 0 31 C-4.99881076 23.50178386 -4.94270129 15.6927936 -4 7 C-2.97392278 4.06771897 -1.95471469 2.44339336 0 0 Z " fill="#E97C63" transform="translate(470,433)"/>
<path d="M0 0 C2.73455424 1.26365723 4.99940364 2.73742078 7 5 C7.6875 7.171875 7.6875 7.171875 8 9 C7.01 9.495 7.01 9.495 6 10 C6 9.01 6 8.02 6 7 C5.34 7 4.68 7 4 7 C4 6.34 4 5.68 4 5 C3.01 4.67 2.02 4.34 1 4 C1 3.34 1 2.68 1 2 C-5.90584443 2.17225462 -9.67483383 3.58124509 -15 8 C-15.33 7.34 -15.66 6.68 -16 6 C-10.6914827 0.55178487 -7.61054989 -1.11737274 0 0 Z " fill="#FCE9DC" transform="translate(496,436)"/>
<path d="M0 0 C1.18464844 -0.00515625 2.36929687 -0.0103125 3.58984375 -0.015625 C7.06332283 0.25006294 9.82335468 1.00379447 13.0625 2.25 C10.02460376 3.18948484 7.87045392 3.21404196 4.75 2.6875 C0.26949617 2.10244248 -2.72156723 2.66902521 -6.9375 4.25 C-7.2675 4.58 -7.5975 4.91 -7.9375 5.25 C-9.93708364 5.29080783 -11.93795254 5.29254356 -13.9375 5.25 C-10.40374666 -0.05063001 -6.06326749 -0.02633341 0 0 Z " fill="#E2755F" transform="translate(490.9375,422.75)"/>
<path d="M0 0 C0.66 0 1.32 0 2 0 C5 3.46153846 5 3.46153846 5 6 C6.32 6.33 7.64 6.66 9 7 C9.33 6.01 9.66 5.02 10 4 C10 5.32 10 6.64 10 8 C10.66 8.33 11.32 8.66 12 9 C6.80310881 9.61658031 6.80310881 9.61658031 4 9 C1.82403854 6.93774674 0.39957179 4.63765454 -1 2 C-0.67 1.34 -0.34 0.68 0 0 Z " fill="#EE735F" transform="translate(504,441)"/>
<path d="M0 0 C1.98 0 3.96 0 6 0 C6.33 0.66 6.66 1.32 7 2 C9.97 1.34 12.94 0.68 16 0 C13.67714464 2.58832455 11.74304376 4.65705673 8.5625 6.125 C4.52112325 5.92785967 2.85212624 3.78579772 0 1 C0 0.67 0 0.34 0 0 Z " fill="#FEE6DC" transform="translate(504,425)"/>
<path d="M0 0 C0 3 0 3 -2 5.6875 C-4.93483523 7.94976882 -5.59903481 8.39418207 -9.0625 8.5625 C-13.28478421 7.95931654 -14.49270723 7.34305702 -17 4 C-16.67 3.34 -16.34 2.68 -16 2 C-15.505 2.7425 -15.505 2.7425 -15 3.5 C-12.41435674 5.43923245 -10.18990269 5.53143624 -7.0078125 5.4375 C-3.68492992 4.71344776 -2.05465071 2.56831339 0 0 Z " fill="#FDE4D9" transform="translate(521,497)"/>
<path d="M0 0 C0 0.66 0 1.32 0 2 C1.32 2.66 2.64 3.32 4 4 C0.99166904 5.50416548 -1.34961578 4.60839737 -4.625 4.0625 C-5.81351563 3.86785156 -7.00203125 3.67320312 -8.2265625 3.47265625 C-9.59941406 3.23869141 -9.59941406 3.23869141 -11 3 C-10 1 -10 1 -8.3125 0.375 C-5.51555886 -0.07855802 -2.82858003 -0.06428591 0 0 Z " fill="#FEE5D9" transform="translate(539,420)"/>
<path d="M0 0 C0.33 0.495 0.66 0.99 1 1.5 C4.21668314 3.91251235 7.04405111 3.25117136 11 3 C11.66 2.67 12.32 2.34 13 2 C12.67 3.32 12.34 4.64 12 6 C8.37 6 4.74 6 1 6 C1 5.34 1 4.68 1 4 C0.34 3.67 -0.32 3.34 -1 3 C-0.67 2.01 -0.34 1.02 0 0 Z " fill="#FDEADC" transform="translate(505,446)"/>
<path d="M0 0 C0 0.66 0 1.32 0 2 C0.804375 2.12375 1.60875 2.2475 2.4375 2.375 C3.7059375 2.684375 3.7059375 2.684375 5 3 C5.33 3.66 5.66 4.32 6 5 C5.34 5 4.68 5 4 5 C3.67 5.66 3.34 6.32 3 7 C2.319375 6.360625 1.63875 5.72125 0.9375 5.0625 C-2.46408839 2.6741507 -4.90433701 2.32122847 -9 2 C-5.86501708 0.14223235 -3.62528568 -0.20140476 0 0 Z " fill="#EB7969" transform="translate(498,434)"/>
<path d="M0 0 C-0.33 8.91 -0.66 17.82 -1 27 C-1.33 27 -1.66 27 -2 27 C-2 18.75 -2 10.5 -2 2 C-2.66 1.67 -3.32 1.34 -4 1 C-2 0 -2 0 0 0 Z " fill="#1F1F20" transform="translate(429,445)"/>
<path d="M0 0 C0.66 0 1.32 0 2 0 C1.98839844 0.67546875 1.97679687 1.3509375 1.96484375 2.046875 C1.95582031 2.93890625 1.94679688 3.8309375 1.9375 4.75 C1.92589844 5.63171875 1.91429687 6.5134375 1.90234375 7.421875 C1.99173802 9.7818838 2.33087179 11.74498524 3 14 C2.34 14 1.68 14 1 14 C1 13.34 1 12.68 1 12 C0.34 12 -0.32 12 -1 12 C-1.33 12.99 -1.66 13.98 -2 15 C-2.33 14.01 -2.66 13.02 -3 12 C-2.71125 11.443125 -2.4225 10.88625 -2.125 10.3125 C-0.4852688 6.94194143 -0.37218134 3.72181341 0 0 Z " fill="#EB826C" transform="translate(478,442)"/>
<path d="M0 0 C-1.2684375 0.5878125 -1.2684375 0.5878125 -2.5625 1.1875 C-6.34200605 3.18033046 -9.56894011 5.46101568 -13 8 C-12.67 6.35 -12.34 4.7 -12 3 C-10.68 2.67 -9.36 2.34 -8 2 C-8 1.34 -8 0.68 -8 0 C-4.71303767 -0.79953138 -3.28976808 -1.09658936 0 0 Z " fill="#FEE7D9" transform="translate(484,424)"/>
<path d="M0 0 C0.99 0.66 1.98 1.32 3 2 C2.11957031 1.97679687 1.23914063 1.95359375 0.33203125 1.9296875 C-0.82941406 1.91164063 -1.99085938 1.89359375 -3.1875 1.875 C-4.33605469 1.85179687 -5.48460937 1.82859375 -6.66796875 1.8046875 C-9.93791143 1.99636058 -12.03440078 2.7051609 -15 4 C-17.3125 3.625 -17.3125 3.625 -19 3 C-13.22505347 -0.95996334 -6.80710627 -0.69979597 0 0 Z " fill="#DF7B68" transform="translate(538,423)"/>
<path d="M0 0 C0.66 0.33 1.32 0.66 2 1 C-0.64 3.64 -3.28 6.28 -6 9 C-6.99 8.67 -7.98 8.34 -9 8 C-7.625 6 -7.625 6 -6 4 C-5.34 4 -4.68 4 -4 4 C-3.67 3.01 -3.34 2.02 -3 1 C-2.01 0.67 -1.02 0.34 0 0 Z " fill="#FCEDE3" transform="translate(551,468)"/>
<path d="M0 0 C0.33 0.66 0.66 1.32 1 2 C1.66 2 2.32 2 3 2 C3 1.34 3 0.68 3 0 C3.99 0.33 4.98 0.66 6 1 C3.69 3.31 1.38 5.62 -1 8 C-1.66 7.67 -2.32 7.34 -3 7 C-2.67 6.01 -2.34 5.02 -2 4 C-1.34 4.33 -0.68 4.66 0 5 C-0.2784375 4.0409375 -0.2784375 4.0409375 -0.5625 3.0625 C-0.706875 2.381875 -0.85125 1.70125 -1 1 C-0.67 0.67 -0.34 0.34 0 0 Z " fill="#E87861" transform="translate(538,474)"/>
<path d="M0 0 C1.12894876 0.93274109 2.25300876 1.87140122 3.375 2.8125 C4.00148438 3.33457031 4.62796875 3.85664063 5.2734375 4.39453125 C7 6 7 6 9 9 C8.67 9.66 8.34 10.32 8 11 C7.34 11 6.68 11 6 11 C5.731875 10.195625 5.46375 9.39125 5.1875 8.5625 C4.795625 7.716875 4.40375 6.87125 4 6 C3.01 5.67 2.02 5.34 1 5 C0.67 3.35 0.34 1.7 0 0 Z " fill="#FDEADE" transform="translate(476,471)"/>
<path d="M0 0 C5.97976619 5.82643885 5.97976619 5.82643885 6.0625 10.625 C6.041875 11.73875 6.02125 12.8525 6 14 C5.67 14 5.34 14 5 14 C4.731875 12.9275 4.46375 11.855 4.1875 10.75 C3.11706038 7.36966434 2.12436737 5.70374028 0 3 C0 2.01 0 1.02 0 0 Z " fill="#FEE2D3" transform="translate(539,438)"/>
<path d="M0 0 C0.33 0.66 0.66 1.32 1 2 C0.67 2.99 0.34 3.98 0 5 C-3.3 5 -6.6 5 -10 5 C-9.67 3.68 -9.34 2.36 -9 1 C-8.34 1.66 -7.68 2.32 -7 3 C-3.70285207 2.67028521 -2.3773161 2.3773161 0 0 Z " fill="#E57B65" transform="translate(517,427)"/>
<path d="M0 0 C2.17854707 3.2678206 3.49760034 6.38058265 5 10 C4.34 10.66 3.68 11.32 3 12 C1.09598862 10.09598862 0.06479561 8.66574314 -0.19921875 5.953125 C-0.1886578 3.96766727 -0.09915043 1.9830086 0 0 Z " fill="#F97B4F" transform="translate(468,448)"/>
<path d="M0 0 C2.625 -0.1875 2.625 -0.1875 5 0 C3.02 2.31 1.04 4.62 -1 7 C-1.33 5.68 -1.66 4.36 -2 3 C-1.34 2.01 -0.68 1.02 0 0 Z " fill="#EA7660" transform="translate(523,490)"/>
<path d="M0 0 C1.32 0.33 2.64 0.66 4 1 C4 1.66 4 2.32 4 3 C4.99 3.33 5.98 3.66 7 4 C7.33 5.65 7.66 7.3 8 9 C6.84775972 8.07038578 5.70340824 7.1309875 4.5625 6.1875 C3.60537109 5.40439453 3.60537109 5.40439453 2.62890625 4.60546875 C1 3 1 3 0 0 Z " fill="#FDE9DB" transform="translate(481,455)"/>
<path d="M0 0 C0 4.35251187 -2.06165511 5.92809398 -5 9 C-7.171875 9.6796875 -7.171875 9.6796875 -9 10 C-8.06409496 8.8944811 -7.12620142 7.79064547 -6.1875 6.6875 C-5.66542969 6.07261719 -5.14335938 5.45773437 -4.60546875 4.82421875 C-3.12827531 3.14575321 -1.59960869 1.56117966 0 0 Z " fill="#DF7460" transform="translate(538,461)"/>
<path d="M0 0 C1 3 1 3 1 5 C0.01 5 -0.98 5 -2 5 C-2 5.66 -2 6.32 -2 7 C-3.32 6.67 -4.64 6.34 -6 6 C-4.02 4.02 -2.04 2.04 0 0 Z " fill="#FBECE3" transform="translate(541,477)"/>
<path d="M0 0 C2.31 1.98 4.62 3.96 7 6 C6.01 6.33 5.02 6.66 4 7 C2 5.1875 2 5.1875 0 3 C0 2.01 0 1.02 0 0 Z " fill="#FDE5D3" transform="translate(497,492)"/>
<path d="M0 0 C2.4375 0.8125 2.4375 0.8125 5 2 C5.33 2.99 5.66 3.98 6 5 C6.66 5 7.32 5 8 5 C7.67 5.99 7.34 6.98 7 8 C5.8274869 7.04882866 4.66212985 6.08882991 3.5 5.125 C2.8503125 4.59132813 2.200625 4.05765625 1.53125 3.5078125 C1.0259375 3.01023437 0.520625 2.51265625 0 2 C0 1.34 0 0.68 0 0 Z " fill="#E97C67" transform="translate(495,489)"/>
</svg>
